<?xml version="1.0" encoding="utf-8"?>
<!-- Generator: Adobe Illustrator 22.0.0, SVG Export Plug-In . SVG Version: 6.00 Build 0)  -->
<svg version="1.1" id="Calque_1" xmlns="http://www.w3.org/2000/svg" xmlns:xlink="http://www.w3.org/1999/xlink" x="0px" y="0px"
	 viewBox="0 0 430.6 753.2" style="enable-background:new 0 0 430.6 753.2;" xml:space="preserve">
<style type="text/css">
	.st0{fill:#FFFFFF;}
</style>
<g>
	<path class="st0" d="M32.2,15.8c1.1-0.1,2.1-0.2,2.9-0.2c4-0.3,7-0.5,9.2-0.5c8.4,0,14.7,1.7,18.8,5.2c4.1,3.4,6.1,7.9,6.1,13.2
		c0,5.8-1.6,10.6-4.7,14.4c-3.1,3.8-7.5,6.5-13.2,8.1c5,0.6,9.1,2.6,12.5,5.9c3.3,3.3,5,7.4,5,12.3c0,9.5-3.5,16.5-10.6,21.1
		c-7,4.6-16.1,6.8-27.1,6.8c-1.6,0-4.3-0.2-7.9-0.5c-1.1-0.1-2.2-0.2-3.4-0.2c-1.2-0.1-2.5-0.1-3.8-0.1H3.5l0.5-4l8.4-1.4l9.3-74.2
		l-7.7-1.1l0.5-4.6h13.8C29.7,15.9,31.1,15.8,32.2,15.8z M26.7,96.1c2.6,0.2,4.7,0.3,6.3,0.3c8,0,14.3-1.7,19-5.1
		c4.7-3.4,7.1-8.7,7.1-16.1C59.1,65.1,53,60,40.8,60c-6.2,0-11.2,0.1-15,0.2l-4.4,35.1C22.4,95.7,24.2,95.9,26.7,96.1z M30.7,54.1
		h8.7c6.1,0,11.1-1.7,14.9-5c3.8-3.3,5.7-8.2,5.7-14.6c0-4.7-1.4-8.3-4.3-10.6c-2.8-2.3-7.4-3.5-13.8-3.5c-1.5,0-3.4,0.1-5.5,0.2
		c-2.1,0.1-4.1,0.3-6,0.5l-4.1,33.1H30.7z"/>
	<path class="st0" d="M127.9,43c3.8,4.7,5.7,11.2,5.7,19.6c0,6.7-1.4,13.2-4.1,19.2c-2.7,6.1-6.5,11-11.4,14.8
		c-4.9,3.8-10.4,5.7-16.5,5.7c-7,0-12.5-2.2-16.4-6.7c-3.9-4.5-5.9-10.8-6.1-19c-0.1-6.9,1.3-13.5,4-19.7
		c2.8-6.2,6.6-11.3,11.5-15.2c4.9-3.9,10.5-5.8,16.7-5.8C118.5,36,124.1,38.3,127.9,43z M98.3,46.8c-3.2,3.4-5.6,7.8-7.2,13.1
		c-1.6,5.3-2.4,10.6-2.4,16c0,6.7,1.3,11.9,3.8,15.5c2.5,3.6,6.2,5.4,10.9,5.4c4.3,0,8-1.7,11.1-5.1c3.1-3.4,5.5-7.7,7.1-12.9
		c1.6-5.2,2.4-10.5,2.4-15.7c0-6.9-1.2-12.2-3.6-15.9c-2.4-3.7-6-5.5-10.8-5.5C105.3,41.6,101.5,43.3,98.3,46.8z"/>
	<path class="st0" d="M155.8,93.3c0,0.9,0.2,1.6,0.5,2.1c0.3,0.5,0.7,0.7,1.1,0.7c1.6,0,3.6-1.3,6.1-3.8l1.5,2.5
		c-0.8,1.5-2.3,3.2-4.5,4.9c-2.1,1.7-4.7,2.6-7.7,2.6c-4,0-6-2.2-6-6.5l0.3-4.2l10.7-75.2l-6.9-1.8l0.9-3.9l13.3-2l2.2,1.4
		l-11.5,82.1L155.8,93.3z"/>
	<path class="st0" d="M251,93.5c0,0.8,0.1,1.5,0.4,2c0.3,0.5,0.6,0.7,1.1,0.7c1.4,0,3.2-1,5.4-3l1.5,2.5c-0.8,1.3-2.3,2.7-4.4,4.3
		c-2.1,1.6-4.5,2.4-7.1,2.4c-4.1,0-6.1-2.3-5.9-7v-3.1c-2.1,2.8-4.9,5.2-8.2,7.2c-3.3,2-6.9,2.9-10.7,2.9c-6.1,0-10.8-2.2-14-6.6
		c-3.2-4.4-4.8-10.3-4.8-17.6c0-6.2,1.5-12.6,4.4-19.1c2.9-6.5,7.1-12,12.6-16.4c5.5-4.4,11.8-6.6,19.1-6.6c2.8,0,6,0.5,9.5,1.5
		l3.3-21.1l-7.4-1.8l0.9-3.9l13.8-2l2.4,1.4l-12.1,82.1C251.1,92.5,251,92.9,251,93.5z M239.2,41.6c-5.4,0-10,1.9-13.8,5.7
		c-3.8,3.8-6.7,8.5-8.6,14c-1.9,5.6-2.9,10.9-2.9,16.1c0,5.7,1,10.2,2.9,13.4c1.9,3.2,4.6,4.8,8.2,4.8c3.7,0,7.2-1.1,10.5-3.4
		c3.3-2.3,5.8-4.9,7.6-7.7l6.1-40C246.8,42.6,243.5,41.6,239.2,41.6z"/>
	<path class="st0" d="M300,10.5c1.6,2.9,2.4,6.2,2.4,9.7c0,6.7-2.1,12.6-6.3,17.5c-4.2,4.9-9.2,8.6-15.1,11.1l-1.8-3.3v-1
		c2.1-0.7,4.2-2.1,6.3-4.1c2.1-2.1,3.8-4.5,5.2-7.4c1.4-2.9,2.1-5.8,2.1-8.8c0-2.6-0.6-4.9-1.8-7c-1.2-2.1-2.9-3.3-5.2-3.7l0.2-1.8
		l6.4-6.9C295.8,5.7,298.4,7.6,300,10.5z"/>
	<path class="st0" d="M365.6,19.6c4.2,3.3,7.4,7.6,9.5,13.2c2.1,5.5,3.1,11.7,3.1,18.5c0,9.6-1.7,18.2-5,26
		c-3.3,7.8-8,13.9-13.9,18.4c-5.9,4.5-12.6,6.7-20,6.7c-6.1,0-11.3-1.6-15.6-4.8c-4.2-3.2-7.5-7.6-9.6-13.2
		c-2.2-5.6-3.3-11.8-3.3-18.9c0-9.6,1.7-18.2,5.1-26c3.4-7.7,8.1-13.8,14.1-18.2c6-4.4,12.6-6.6,20-6.6
		C356.1,14.7,361.4,16.4,365.6,19.6z M334,26.1c-4.3,3.8-7.7,9-10.2,15.6c-2.5,6.7-3.7,14.2-3.7,22.5c0,9.9,1.8,17.8,5.4,23.7
		c3.6,5.9,8.6,8.9,15,8.9c5.3,0,10.1-1.9,14.3-5.6c4.2-3.8,7.6-9,10.1-15.6c2.4-6.7,3.7-14.2,3.7-22.5c0-10-1.7-17.9-5.1-23.8
		c-3.4-5.9-8.4-8.8-14.9-8.8C343.2,20.5,338.3,22.4,334,26.1z"/>
	<path class="st0" d="M409.4,45c2.1-2.5,4.7-4.6,7.6-6.3c2.9-1.7,6.1-2.6,9.4-2.6c1.8,0,3.1,0.2,3.7,0.7l-2.1,10
		c-1.1-0.6-2.8-0.9-5.3-0.9c-3.5,0-7.1,1.3-10.7,4c-3.6,2.7-6.4,6.4-8.4,11.3l-4.9,40.1h-9l7.2-55.8l-5.9-2.6l0.8-4.1l12.1-2.4
		l2.2,1l-0.8,10.2l-0.7,4.7C405.7,49.9,407.3,47.5,409.4,45z"/>
</g>
<g>
	<path class="st0" d="M37.2,650.6c0,0.6,0.1,1,0.3,1.3c0.2,0.3,0.4,0.5,0.8,0.5c0.9,0,2.2-0.7,3.7-2.1l1,1.7c-0.6,0.9-1.6,1.9-3,3
		c-1.4,1.1-3.1,1.6-4.9,1.6c-2.8,0-4.2-1.6-4-4.8v-2.1c-1.5,1.9-3.3,3.6-5.6,4.9c-2.3,1.3-4.7,2-7.3,2c-4.2,0-7.4-1.5-9.6-4.5
		c-2.2-3-3.3-7.1-3.3-12.1c0-4.3,1-8.6,3-13.1c2-4.5,4.9-8.3,8.6-11.3c3.8-3,8.1-4.5,13.1-4.5c1.9,0,4.1,0.3,6.6,1l2.3-14.5
		l-5.1-1.3l0.6-2.7l9.5-1.3l1.7,0.9l-8.3,56.4C37.3,649.9,37.2,650.2,37.2,650.6z M29.1,614.9c-3.7,0-6.8,1.3-9.5,3.9
		c-2.6,2.6-4.6,5.8-5.9,9.6c-1.3,3.8-2,7.5-2,11.1c0,3.9,0.7,7,2,9.2c1.3,2.2,3.2,3.3,5.6,3.3c2.5,0,4.9-0.8,7.2-2.4
		c2.3-1.6,4-3.3,5.2-5.3l4.2-27.5C34.3,615.6,32.1,614.9,29.1,614.9z"/>
	<path class="st0" d="M70.9,593.6c1.1,2,1.7,4.2,1.7,6.7c0,4.6-1.4,8.6-4.3,12c-2.9,3.4-6.3,5.9-10.4,7.7l-1.3-2.3v-0.7
		c1.4-0.5,2.9-1.4,4.3-2.8c1.4-1.4,2.6-3.1,3.6-5.1c0.9-2,1.4-4,1.4-6c0-1.8-0.4-3.4-1.3-4.8c-0.8-1.4-2-2.3-3.6-2.5l0.2-1.3
		l4.4-4.7C68,590.2,69.8,591.6,70.9,593.6z"/>
	<path class="st0" d="M109,650.1c0,0.8,0.2,1.4,0.5,1.8c0.3,0.4,0.7,0.6,1.1,0.6c0.5,0,1-0.2,1.5-0.5c0.5-0.3,1.1-0.9,1.9-1.7
		l1.1,1.7c-0.2,0.4-0.7,1-1.5,1.8c-0.8,0.8-1.7,1.4-2.8,2.1c-1.1,0.6-2.3,0.9-3.5,0.9c-3.3,0-4.8-1.7-4.6-5.2l0.5-3.2
		c-1.8,2.3-3.9,4.3-6.3,6c-2.4,1.7-4.9,2.5-7.5,2.5c-4.2,0-7.2-1.5-9.3-4.5c-2-3-3-7.1-3-12.2c0-4.3,1-8.6,3-13.1
		c2-4.5,4.9-8.3,8.6-11.3c3.8-3,8.1-4.5,13.1-4.5c1.1,0,2.4,0.1,3.9,0.4c1.5,0.3,2.8,0.6,3.9,0.9l4.3-1.3l-5.1,38
		C109,649.4,109,649.7,109,650.1z M101.2,614.9c-3.6,0-6.8,1.3-9.4,3.8c-2.6,2.5-4.6,5.6-6,9.4c-1.4,3.8-2.1,7.5-2.1,11.2
		c0,4.1,0.6,7.2,1.8,9.4c1.2,2.2,3,3.4,5.4,3.4c2.4,0,4.7-0.9,7.1-2.8c2.3-1.9,4.3-3.9,5.9-6.2l3.5-26.4
		C105.6,615.5,103.6,614.9,101.2,614.9z"/>
	<path class="st0" d="M124.2,615.7c-0.8,0-1.8,0.5-2.9,1.5l-0.9-2.1c0.4-0.7,1.3-1.6,2.6-2.6c1.3-1,2.8-1.5,4.4-1.5
		c1.7,0,2.9,0.4,3.5,1.3c0.7,0.9,1.1,2.2,1.4,4l3,25.7l0.9,8.5l5.7-7.3c2.7-3.8,4.8-7.5,6.5-11.1c1.6-3.6,2.7-7.4,3.3-11.6
		c0.1-1.3-0.1-2.6-0.7-3.9c-0.3-0.9-0.5-1.6-0.5-2.1c0-1.2,0.3-2,0.8-2.6c0.6-0.6,1.3-0.9,2.2-0.9c1.4,0,2.4,0.7,3.2,2
		c0.7,1.3,1.1,3.1,1.1,5.3c0,3.4-1.1,7.5-3.4,12.1s-5,9.2-8.2,13.6l-9.1,12l-4.7,0.5l-2.4-14.4l-3.9-24
		C125.8,616.6,125.2,615.7,124.2,615.7z"/>
	<path class="st0" d="M188.5,654.1c-3,1.7-6.2,2.6-9.7,2.6s-6.3-0.8-8.6-2.4c-2.3-1.6-3.9-3.6-5-6.2c-1.1-2.6-1.6-5.3-1.6-8.3
		c0-4.9,1-9.6,3-14.1c2-4.4,4.7-8,8.2-10.7c3.4-2.7,7.3-4,11.5-4c3.6,0,6.3,0.9,8.1,2.7c1.8,1.8,2.8,4.1,2.8,6.9
		c0,3.7-1.6,6.9-4.7,9.4c-3.2,2.6-6.9,4.5-11.1,5.8c-4.3,1.3-7.9,2-11.1,2c-0.1,0.4-0.1,1-0.1,1.8c0,3.4,0.8,6.3,2.4,8.8
		c1.6,2.5,4,3.7,7.3,3.7c2.3,0,4.6-0.5,7-1.6c2.4-1.1,4.7-2.6,6.7-4.7l1.5,2.7C193.7,650.5,191.5,652.4,188.5,654.1z M177.7,617.9
		c-2.1,2.1-3.8,4.6-5,7.6c-1.2,3-2,6-2.2,8.9c3-0.1,6.1-0.7,9.3-1.8c3.2-1.1,5.9-2.6,8-4.5c2.2-1.9,3.2-4.2,3.2-6.8
		c-0.1-2.1-0.6-3.7-1.7-4.8c-1.1-1.1-2.5-1.7-4.4-1.7C182.2,614.8,179.8,615.8,177.7,617.9z"/>
	<path class="st0" d="M224.5,614.1c3.1-2,6.1-3,9.1-3c2.8,0,5,0.9,6.6,2.6c1.5,1.8,2.3,4.7,2.3,8.7c0,2.3-0.6,6.3-1.7,11.9l-0.4,2.1
		c-0.1,0.4-0.2,1.1-0.4,2.1c-0.9,5.5-1.5,9.3-1.7,11.3c-0.1,1.8,0.2,2.7,0.9,2.7c1.1,0,2.3-0.7,3.7-2.1l1,1.8
		c-0.5,0.8-1.6,1.7-3.1,2.8c-1.5,1.1-3.2,1.7-5,1.7c-2.8,0-4.2-1.5-4.2-4.4c0-1.2,0.2-2.7,0.5-4.7c0.3-1.9,0.7-3.9,1-5.8l0.7-3.6
		l0.5-2.4c0.6-3.2,1-5.7,1.3-7.6c0.3-1.8,0.4-3.6,0.4-5.4c0-2.6-0.4-4.4-1.2-5.3c-0.8-1-2.2-1.5-4.1-1.5c-2.3,0-4.8,1.1-7.7,3.3
		c-2.9,2.2-5.3,4.8-7.3,7.9l-3.9,28.7h-6.2l5.1-38.5l-3.8-1.8l0.6-2.8l8.3-1.7l1.5,0.8l-1,9.9C218.8,618.7,221.4,616.1,224.5,614.1z
		"/>
	<path class="st0" d="M261.7,648.5c0,1.4,0.3,2.3,0.8,2.9c0.6,0.6,1.5,0.8,3,0.8c1.1,0,2.4-0.4,4-1.1c1.6-0.7,2.9-1.5,3.8-2.2
		l0.6,2.4c-1,1.2-2.7,2.4-5.1,3.6c-2.4,1.2-4.6,1.8-6.7,1.8c-4.5,0-6.8-2.2-6.8-6.5c0-1.4,0.1-3,0.4-5l3.7-28.8h-4.8l0.7-2.8
		l4.8-1.5c1.1-1.4,2.6-5,4.4-10.8h3.1l-1.4,10.7h10.9l-0.6,4.3h-10.7l-3.6,26.1C261.9,645.7,261.7,647.6,261.7,648.5z"/>
	<path class="st0" d="M290.6,636.4c-0.2,1.5-0.4,3.1-0.6,4.6c-0.2,1.5-0.2,2.9-0.2,4.2c0,2.7,0.5,4.6,1.5,5.6c1,1,2.5,1.5,4.4,1.5
		c2.1,0,4.4-0.8,6.8-2.5c2.4-1.7,4.4-3.6,5.9-5.8l4.3-32.4h6.1l-5.1,38c-0.1,0.2-0.1,0.5-0.1,0.9c0,1.3,0.3,1.9,1,1.9
		c1.1,0,2.6-0.9,4.3-2.7l0.9,1.8c-0.3,0.5-0.9,1.1-1.7,1.9c-0.8,0.8-1.9,1.5-3.1,2.2c-1.2,0.6-2.5,0.9-3.7,0.9
		c-1.2,0-2.2-0.4-2.8-1.1c-0.7-0.7-1-1.7-1-2.9c0-0.5,0-0.9,0.1-1.2c0.2-0.6,0.3-1.6,0.4-2.9l-0.1-0.1c-1.8,2.4-4,4.3-6.5,5.9
		c-2.5,1.6-5.2,2.4-8.1,2.4c-3.1,0-5.4-0.8-7-2.4c-1.6-1.6-2.4-4.3-2.4-8.1c0-2.6,0.4-7.2,1.3-13.7l2.1-15l-3.9-1.9l0.5-2.8l8.4-1.7
		l1.5,0.8l-2.7,20.8L290.6,636.4z"/>
	<path class="st0" d="M342.5,617.3c1.5-1.7,3.2-3.2,5.2-4.3c2-1.2,4.2-1.8,6.4-1.8c1.3,0,2.1,0.2,2.5,0.5l-1.4,6.9
		c-0.7-0.4-1.9-0.6-3.6-0.6c-2.4,0-4.9,0.9-7.3,2.8c-2.5,1.8-4.4,4.4-5.8,7.7l-3.4,27.5H329l5-38.4l-4-1.8l0.6-2.8l8.3-1.7l1.5,0.7
		l-0.6,7l-0.5,3.2C339.9,620.6,341,619,342.5,617.3z"/>
	<path class="st0" d="M384.4,654.1c-3,1.7-6.2,2.6-9.7,2.6c-3.5,0-6.3-0.8-8.6-2.4c-2.3-1.6-3.9-3.6-5-6.2c-1.1-2.6-1.6-5.3-1.6-8.3
		c0-4.9,1-9.6,3-14.1c2-4.4,4.7-8,8.2-10.7c3.4-2.7,7.3-4,11.5-4c3.6,0,6.3,0.9,8.1,2.7c1.8,1.8,2.8,4.1,2.8,6.9
		c0,3.7-1.6,6.9-4.7,9.4c-3.2,2.6-6.9,4.5-11.1,5.8c-4.3,1.3-7.9,2-11.1,2c-0.1,0.4-0.1,1-0.1,1.8c0,3.4,0.8,6.3,2.4,8.8
		s4,3.7,7.3,3.7c2.3,0,4.6-0.5,7-1.6c2.4-1.1,4.7-2.6,6.7-4.7l1.5,2.7C389.5,650.5,387.3,652.4,384.4,654.1z M373.5,617.9
		c-2.1,2.1-3.8,4.6-5,7.6c-1.2,3-2,6-2.2,8.9c3-0.1,6.1-0.7,9.3-1.8c3.2-1.1,5.9-2.6,8-4.5c2.2-1.9,3.2-4.2,3.2-6.8
		c-0.1-2.1-0.6-3.7-1.7-4.8c-1.1-1.1-2.5-1.7-4.4-1.7C378,614.8,375.6,615.8,373.5,617.9z"/>
	<path class="st0" d="M424.7,616.9c-0.8-0.5-1.9-0.9-3.2-1.2c-1.3-0.3-2.7-0.5-4.1-0.5c-2.7,0-4.8,0.6-6.4,1.7
		c-1.6,1.1-2.3,2.8-2.3,5c0,1.8,0.6,3.5,1.8,4.9c1.2,1.4,2.9,2.9,5.1,4.6c2.1,1.6,3.6,2.9,4.7,3.9c1.1,1,2.1,2.3,3.1,3.9
		c0.9,1.6,1.4,3.4,1.4,5.4c0,3.8-1.5,6.8-4.4,9c-2.9,2.1-6.5,3.2-10.9,3.2c-2.4,0-4.7-0.2-7-0.8c-2.3-0.5-3.8-1.1-4.5-1.7l1-4.8
		c1,0.7,2.5,1.4,4.5,2.1c2,0.6,4,0.9,6.2,0.9c2.6,0,4.7-0.5,6.5-1.5c1.7-1,2.6-2.7,2.6-5.1c0-1.4-0.4-2.7-1.1-3.9
		c-0.8-1.2-1.6-2.1-2.5-2.9c-0.9-0.8-2.3-1.8-4.1-3c-2.1-1.4-4-3.2-5.8-5.4c-1.7-2.2-2.6-4.6-2.6-7.4c0-2.4,0.7-4.6,2-6.4
		c1.3-1.8,3.1-3.3,5.4-4.3c2.3-1,4.8-1.5,7.5-1.5c1.9,0,3.8,0.2,5.8,0.5c1.9,0.3,3.3,0.7,4.1,1.1l-1.3,5.4
		C426.1,617.8,425.6,617.4,424.7,616.9z"/>
	<path class="st0" d="M59.3,703.6c3.1-2.1,6.2-3.2,9.3-3.2c2.9,0,5.1,0.9,6.6,2.6c1.5,1.8,2.2,4.7,2.2,8.8c0,2.3-0.6,6.2-1.7,11.8
		c-0.1,0.3-0.1,0.7-0.2,1c-0.1,0.4-0.1,0.7-0.2,1.1c-0.2,0.9-0.3,1.7-0.4,2.4c-1,4.9-1.6,8.6-1.7,11c-0.1,0.9,0,1.6,0.2,2.1
		c0.2,0.5,0.5,0.7,0.9,0.7c0.5,0,1.1-0.2,1.7-0.5c0.6-0.3,1.4-1,2.4-1.9l0.9,1.7c-0.3,0.5-0.8,1.1-1.6,1.9c-0.8,0.8-1.8,1.4-3,2.1
		c-1.2,0.6-2.5,0.9-3.8,0.9c-2.9,0-4.3-1.4-4.3-4.3c0-1.4,0.2-3.2,0.6-5.6c0.4-2.3,0.7-3.7,0.7-4.1c0.1-0.2,0.3-1.6,0.8-4.4
		c0.7-3.5,1.2-6.4,1.6-8.7c0.4-2.3,0.6-4.6,0.6-6.7c0-2.5-0.4-4.3-1.2-5.3c-0.8-1-2.1-1.5-3.9-1.5c-2.4,0-5,1.1-7.9,3.3
		c-2.9,2.2-5.3,4.8-7.3,7.9l-3.9,28.6h-6l7.7-58.3l-4.4-1.3l0.5-2.7l9.1-1.3l1.6,0.9l-3.9,29C53.5,708.4,56.2,705.7,59.3,703.6z"/>
	<path class="st0" d="M97.2,725.7c-0.2,1.5-0.4,3.1-0.6,4.6c-0.2,1.5-0.2,2.9-0.2,4.2c0,2.7,0.5,4.6,1.5,5.6c1,1,2.5,1.5,4.4,1.5
		c2.1,0,4.4-0.8,6.7-2.5c2.4-1.7,4.4-3.6,5.9-5.8l4.3-32.4h6.1l-5.1,38c-0.1,0.2-0.1,0.5-0.1,0.9c0,1.3,0.3,1.9,1,1.9
		c1.1,0,2.6-0.9,4.3-2.7l0.9,1.8c-0.3,0.5-0.9,1.1-1.7,1.9c-0.8,0.8-1.9,1.5-3.1,2.2c-1.2,0.6-2.5,0.9-3.7,0.9
		c-1.2,0-2.2-0.4-2.8-1.1c-0.7-0.7-1-1.7-1-2.9c0-0.5,0-0.9,0.1-1.2c0.2-0.6,0.3-1.6,0.4-2.9l-0.1-0.1c-1.8,2.4-4,4.3-6.5,5.9
		c-2.5,1.6-5.2,2.4-8.1,2.4c-3.1,0-5.4-0.8-7-2.4c-1.6-1.6-2.4-4.3-2.4-8.1c0-2.6,0.4-7.2,1.3-13.7l2.1-15L90,705l0.5-2.8l8.4-1.7
		l1.5,0.8l-2.7,20.8L97.2,725.7z"/>
	<path class="st0" d="M154.3,703.4c3.1-2,6.1-3,9-3c2.8,0,4.9,0.8,6.4,2.4c1.4,1.6,2.2,4.2,2.3,7.7c2.1-2.9,4.5-5.4,7.2-7.3
		c2.8-1.9,5.5-2.9,8.3-2.9c2.8,0,5,0.9,6.6,2.8c1.6,1.8,2.4,4.7,2.4,8.7c0,1.2-0.1,2.8-0.4,4.7c-0.3,1.9-0.6,3.9-0.9,5.8l-0.6,3.4
		l-0.3,1.7c-0.9,5.7-1.5,9.6-1.7,11.6l-0.1,0.9c0,1.2,0.3,1.7,0.9,1.7s1.3-0.2,2-0.6c0.7-0.4,1.5-1.1,2.4-2l0.9,1.7
		c-0.6,1-1.7,2.1-3.3,3.3c-1.6,1.2-3.3,1.8-5.2,1.8c-1.4,0-2.4-0.4-3.1-1.1c-0.7-0.7-1-1.8-1-3.3c0-1.2,0.1-2.7,0.4-4.7
		c0.3-1.9,0.6-3.8,0.9-5.7l0.6-3.9l0.5-2.7c1-5.6,1.5-9.8,1.5-12.6c0-2.5-0.4-4.3-1.2-5.2c-0.8-1-2.1-1.5-3.9-1.5
		c-2,0-4.2,0.9-6.7,2.8c-2.4,1.9-4.7,4.3-6.7,7.1c-0.3,2.6-0.7,6-1.3,10.3l-2.6,19.5h-6.3l2.5-17.6c0.5-3.3,0.9-6.2,1.3-8.6
		s0.5-4.7,0.5-6.7c-0.1-2.6-0.4-4.4-1.1-5.4s-2.1-1.4-4.1-1.4c-2.3,0-4.8,1.1-7.7,3.2c-2.9,2.2-5.3,4.8-7.3,7.8l-3.9,28.7h-6.2
		l5.1-38.5l-3.8-1.8l0.6-2.8l8.3-1.7l1.5,0.8l-1,9.9C148.6,708,151.3,705.4,154.3,703.4z"/>
	<path class="st0" d="M238.7,739.4c0,0.8,0.2,1.4,0.5,1.8c0.3,0.4,0.7,0.6,1.1,0.6c0.5,0,1-0.2,1.5-0.5c0.5-0.3,1.1-0.9,1.9-1.7
		l1.1,1.7c-0.2,0.4-0.7,1-1.5,1.8c-0.8,0.8-1.7,1.4-2.8,2.1s-2.3,0.9-3.5,0.9c-3.3,0-4.8-1.7-4.6-5.2l0.5-3.2
		c-1.8,2.3-3.9,4.3-6.3,6c-2.4,1.7-4.9,2.5-7.5,2.5c-4.2,0-7.2-1.5-9.3-4.5c-2-3-3-7.1-3-12.2c0-4.3,1-8.6,3-13.1
		c2-4.5,4.9-8.3,8.6-11.3c3.8-3,8.1-4.5,13.1-4.5c1.1,0,2.4,0.1,3.9,0.4c1.5,0.3,2.8,0.6,3.9,0.9l4.3-1.3l-5.1,38
		C238.7,738.7,238.7,739,238.7,739.4z M230.9,704.2c-3.6,0-6.8,1.3-9.4,3.8c-2.6,2.5-4.6,5.6-6,9.4c-1.4,3.8-2.1,7.5-2.1,11.2
		c0,4.1,0.6,7.2,1.8,9.4c1.2,2.2,3,3.4,5.4,3.4c2.4,0,4.7-0.9,7.1-2.8c2.3-1.9,4.3-3.9,5.9-6.2L237,706
		C235.3,704.8,233.3,704.2,230.9,704.2z"/>
	<path class="st0" d="M261.9,739.9c0,0.6,0.1,1,0.4,1.3c0.2,0.3,0.5,0.5,0.8,0.5c1.1,0,2.4-0.9,4.1-2.6l1,1.7
		c-0.7,1.1-1.8,2.2-3.3,3.4c-1.5,1.2-3.2,1.8-5.1,1.8c-1.4,0-2.5-0.4-3.4-1.1c-0.8-0.7-1.2-1.9-1.1-3.6c0.1-1.4,0.5-4.1,1.1-8.3
		c0.6-4.2,1.1-7.3,1.4-9.4l2.5-17.3l-5.1-1.7l0.5-2.5l10-1.7l1.6,0.8L262,739C261.9,739.2,261.9,739.5,261.9,739.9z M262.6,690.3
		c-0.7-0.7-1.1-1.6-1.1-2.7c0-1.4,0.5-2.6,1.5-3.6c1-1,2-1.5,3.1-1.5c1.1,0,2,0.3,2.6,1c0.7,0.7,1,1.6,1,2.7c0,1.4-0.5,2.6-1.4,3.6
		c-0.9,1-2,1.5-3.3,1.5C264.2,691.4,263.4,691,262.6,690.3z"/>
	<path class="st0" d="M297.2,703.4c3.1-2,6.1-3,9.1-3c2.8,0,5,0.9,6.6,2.6c1.5,1.8,2.3,4.7,2.3,8.7c0,2.3-0.6,6.3-1.7,11.9l-0.4,2.1
		c-0.1,0.4-0.2,1.1-0.4,2.1c-0.9,5.5-1.5,9.3-1.7,11.3c-0.1,1.8,0.2,2.7,0.9,2.7c1.1,0,2.3-0.7,3.7-2.1l1,1.8
		c-0.5,0.8-1.6,1.7-3.1,2.8c-1.5,1.1-3.2,1.7-5,1.7c-2.8,0-4.2-1.5-4.2-4.4c0-1.2,0.2-2.7,0.5-4.7c0.3-1.9,0.7-3.9,1-5.8l0.7-3.6
		l0.5-2.4c0.6-3.2,1-5.7,1.3-7.6c0.3-1.8,0.4-3.6,0.4-5.4c0-2.6-0.4-4.4-1.2-5.3c-0.8-1-2.2-1.5-4.1-1.5c-2.3,0-4.8,1.1-7.7,3.3
		c-2.9,2.2-5.3,4.8-7.3,7.9l-3.9,28.7h-6.2l5.1-38.5l-3.8-1.8l0.6-2.8l8.3-1.7l1.5,0.8l-1,9.9C291.5,708,294.1,705.4,297.2,703.4z"
		/>
	<path class="st0" d="M350.3,743.4c-3,1.7-6.2,2.6-9.7,2.6c-3.5,0-6.3-0.8-8.6-2.4c-2.3-1.6-3.9-3.6-5-6.2c-1.1-2.6-1.6-5.3-1.6-8.3
		c0-4.9,1-9.6,3-14.1c2-4.4,4.7-8,8.2-10.7c3.4-2.7,7.3-4,11.5-4c3.6,0,6.3,0.9,8.1,2.7c1.8,1.8,2.8,4.1,2.8,6.9
		c0,3.7-1.6,6.9-4.7,9.4c-3.2,2.6-6.9,4.5-11.1,5.8c-4.3,1.3-7.9,2-11.1,2c-0.1,0.4-0.1,1-0.1,1.8c0,3.4,0.8,6.3,2.4,8.8
		s4,3.7,7.3,3.7c2.3,0,4.6-0.5,7-1.6c2.4-1.1,4.7-2.6,6.7-4.7l1.5,2.7C355.5,739.8,353.3,741.7,350.3,743.4z M339.5,707.2
		c-2.1,2.1-3.8,4.6-5,7.6c-1.2,3-2,6-2.2,8.9c3-0.1,6.1-0.7,9.3-1.8c3.2-1.1,5.9-2.6,8-4.5c2.2-1.9,3.2-4.2,3.2-6.8
		c-0.1-2.1-0.6-3.7-1.7-4.8c-1.1-1.1-2.5-1.7-4.4-1.7C344,704.1,341.6,705.1,339.5,707.2z"/>
	<path class="st0" d="M390.7,706.2c-0.8-0.5-1.9-0.9-3.2-1.2c-1.3-0.3-2.7-0.5-4.1-0.5c-2.7,0-4.8,0.6-6.4,1.7
		c-1.6,1.1-2.3,2.8-2.3,5c0,1.8,0.6,3.5,1.8,4.9c1.2,1.4,2.9,2.9,5.1,4.6c2.1,1.6,3.6,2.9,4.7,3.9c1.1,1,2.1,2.3,3.1,3.9
		c0.9,1.6,1.4,3.4,1.4,5.4c0,3.8-1.5,6.8-4.4,9c-2.9,2.1-6.5,3.2-10.9,3.2c-2.4,0-4.7-0.2-7-0.8c-2.3-0.5-3.8-1.1-4.5-1.7l1-4.8
		c1,0.7,2.5,1.4,4.5,2.1c2,0.6,4,0.9,6.2,0.9c2.6,0,4.7-0.5,6.5-1.5c1.7-1,2.6-2.7,2.6-5.1c0-1.4-0.4-2.7-1.1-3.9
		c-0.8-1.2-1.6-2.1-2.5-2.9c-0.9-0.8-2.3-1.8-4.1-3c-2.1-1.4-4-3.2-5.8-5.4c-1.7-2.2-2.6-4.6-2.6-7.4c0-2.4,0.7-4.6,2-6.4
		c1.3-1.8,3.1-3.3,5.4-4.3c2.3-1,4.8-1.5,7.5-1.5c1.9,0,3.8,0.2,5.8,0.5c1.9,0.3,3.3,0.7,4.1,1.1l-1.3,5.4
		C392.1,707.1,391.6,706.7,390.7,706.2z"/>
</g>
<g>
	<path class="st0" d="M124.1,493.4c0,4.6,1.2,8,3.5,10.1c2.4,2.1,5.6,3.1,9.6,3.1c2.3,0,5-0.7,8.2-2.2c3.2-1.5,6.1-3.2,8.7-5.2
		v-21.6c-9.8,0.1-17.3,1.5-22.4,4.4C126.7,484.8,124.1,488.6,124.1,493.4z"/>
	<path class="st0" d="M142.3,375.9c6.8-5.7,10.2-13.3,10.2-22.6c0-5.9-1.8-11.3-5.4-16c-3.6-4.8-8.3-8.9-13.9-12.4
		c-5.6-3.5-13.1-7.8-22.5-12.7l-12.3-6.6c-5.9,4.4-10.6,9.6-14,15.7c-3.4,6.1-5.2,12.9-5.2,20.3c0,12.8,3.5,23.1,10.4,31.1
		c7,7.9,16.7,11.9,29.3,11.9C127.7,384.5,135.5,381.6,142.3,375.9z"/>
	<path class="st0" d="M111.2,259.6c5.7,3.7,13.4,8.2,22.9,13.3c6.1-4.4,10.8-9.5,14.2-15.3c3.3-5.8,5-12,5-18.5
		c0-11.4-2.7-20.3-8.2-26.6s-13.3-9.4-23.6-9.4c-8.2,0-15.2,2.4-21,7.3c-5.8,4.9-8.7,11.6-8.7,20.2c0,6.1,1.8,11.5,5.4,16.3
		C100.8,251.6,105.5,255.8,111.2,259.6z"/>
	<path class="st0" d="M325.6,246.4c-4.4-4.9-10.3-7.3-17.7-7.3c-20.2,0-30.3,23.6-30.3,70.7c0,26.5,2.4,45.6,7.2,57.4
		c4.8,11.7,12.6,17.6,23.5,17.6c10.1,0,17.6-5.9,22.6-17.7c5-11.8,7.4-29.9,7.4-54.1c0-18.1-1-32.5-3-43.2
		C333.1,259,329.9,251.3,325.6,246.4z"/>
	<path class="st0" d="M2.1,135.6v428h428v-428H2.1z M40.8,348.4c0-10.9,3.6-20.8,10.9-29.9c7.2-9.1,17.7-16.4,31.5-21.9
		c-10.5-7.1-18.7-14.9-24.5-23.6c-5.8-8.7-8.7-19.3-8.7-31.9c0-11.6,3.1-21.7,9.4-30c6.3-8.4,14.9-14.8,25.8-19.3
		c10.9-4.5,23-6.7,36.3-6.7c13.9,0,25.9,2.1,35.9,6.2c10,4.1,17.6,9.8,22.9,17c5.2,7.3,7.9,15.5,7.9,24.6c0,10.3-3.2,19.7-9.6,28.2
		c-6.4,8.5-15.7,15.5-27.9,21c15.3,8.6,27.2,17.6,35.9,27.2c8.7,9.5,13,21.5,13,35.8c0,11.8-3.4,22.2-10.3,31.1
		s-16.5,15.7-28.8,20.5c-12.3,4.8-26.5,7.2-42.5,7.2c-21.7,0-40.1-4.5-54.9-13.6C48.2,381,40.8,367.1,40.8,348.4z M171.5,511.7
		c-4.5,1.2-8.3,1.8-11.3,1.8c-2,0-3.3-0.3-4-0.9c-0.7-0.6-1.1-2-1.1-4.2v-4.5c-2.9,2.6-6.1,4.9-9.6,6.9c-3.5,2-7.4,3-11.8,3
		c-5.9,0-10.7-1.6-14.6-4.9c-3.9-3.3-5.8-8-5.8-14.3c0-7.9,3.9-13.6,11.7-17.1c7.8-3.5,17.5-5.4,29.1-5.7V468c0-4.1-0.4-7.4-1.3-9.8
		c-0.9-2.4-2.3-4.1-4.5-5.2c-2.1-1.1-5.1-1.6-8.9-1.6c-4.1,0-7.9,0.6-11.3,1.9c-3.4,1.3-6.6,2.8-9.8,4.6l-2.7-5.4
		c0.9-0.8,2.8-2,5.6-3.4c2.8-1.5,6.1-2.8,9.8-3.9c3.7-1.1,7.2-1.7,10.6-1.7c5.5,0,9.9,0.8,13.1,2.3c3.2,1.5,5.5,4,7,7.4
		c1.4,3.4,2.1,8,2.1,13.8v40.2h7.6V511.7z M251.2,512.4H224v-5.2l8.2-0.9v-34.6c0-5.1-0.3-9.1-1-12.1c-0.7-2.9-2-5.1-4-6.6
		c-2-1.5-4.9-2.3-8.7-2.3c-3.3,0-6.8,0.8-10.5,2.4c-3.8,1.6-7.1,3.5-9.8,5.7v47.3l8.9,1v5.2h-27v-5.2l8.2-1v-53.4l-9.4-2.1v-5.5
		l15.5-2h0.4l2.3,2v5.4l-0.1,3c3-2.6,7-5,12-7.2c5-2.2,9.6-3.3,13.8-3.3c5.2,0,9.2,1,12,3c2.8,2,4.8,5,5.9,9.1
		c1.1,4.1,1.6,9.6,1.6,16.5v34.5l9.1,0.9V512.4z M302,508.6c-4.6,3.5-10.7,5.2-18.4,5.2c-3.5,0-7.5-0.6-12-1.7
		c-4.5-1.1-7.8-2.3-10-3.4v-15.4h6.6l1.8,9.5c0.9,1.4,2.8,2.6,5.6,3.7c2.8,1.1,5.9,1.6,9.1,1.6c9.9,0,14.9-3.7,14.9-11
		c0-3.3-1.4-6-4.1-8.1s-7.5-4.4-14.1-6.9c-6.6-2.4-11.4-5.2-14.4-8.4c-3-3.3-4.5-7.6-4.5-13c0-3.5,1.1-6.5,3.2-9.1
		c2.2-2.6,5-4.6,8.7-6c3.6-1.4,7.5-2.1,11.8-2.1c4.1,0,7.6,0.4,10.4,1.1c2.8,0.7,5.6,1.6,8.4,2.7v14.5h-6l-2.2-8.9
		c-0.6-1.1-2-2-4.3-2.7c-2.3-0.7-4.9-1.1-7.6-1.1c-3.9,0-7.1,0.9-9.5,2.6c-2.4,1.8-3.7,4.1-3.7,7c0,2.6,0.6,4.8,1.8,6.5
		c1.2,1.7,2.7,3.1,4.5,4.1c1.8,1,4.3,2.2,7.4,3.5l2.3,1c4.6,1.8,8.4,3.5,11.2,5.1c2.8,1.6,5.2,3.7,7.1,6.2c1.9,2.6,2.8,5.8,2.8,9.6
		C308.9,500.4,306.6,505.1,302,508.6z M376.6,361.3c-7.5,14.1-17.6,24.7-30.2,31.6c-12.6,7-26.6,10.4-42.1,10.4
		c-24.4,0-43.3-7.8-56.7-23.3c-13.4-15.5-20-37.7-20-66.5c0-20.6,3.8-37.9,11.4-51.9c7.6-14,17.8-24.4,30.6-31.2
		c12.8-6.8,26.9-10.2,42.4-10.2c24.4,0,43.2,7.6,56.2,22.8c13.1,15.2,19.6,37.3,19.6,66.3C387.9,329.8,384.2,347.2,376.6,361.3z"/>
</g>
</svg>
